<svg width="64" height="61" viewBox="0 0 64 61" fill="none" xmlns="http://www.w3.org/2000/svg">
<path d="M63.0408 25.0512C63.0409 23.8615 62.579 22.7203 61.7564 21.8779C60.9339 21.0355 59.8178 20.5605 58.653 20.5572H44.0556L32.7707 1.76065C32.6575 1.43727 32.4808 1.14088 32.2516 0.889623L32.1403 0.73814C31.9614 0.480799 31.7174 0.277926 31.4344 0.151193C31.1514 0.0244596 30.84 -0.0213717 30.5335 0.0185946C30.226 -0.0280063 29.9119 0.013393 29.626 0.138191C29.3402 0.262989 29.0938 0.466296 28.9143 0.725517L28.8278 0.877C28.5944 1.125 28.4171 1.42235 28.3087 1.74803L17.0238 20.5572H4.404C3.37587 20.5533 2.37906 20.9183 1.58753 21.5885C0.795996 22.2586 0.260012 23.1914 0.073115 24.2239C-0.113782 25.2565 0.0602769 26.3233 0.564915 27.2381C1.06955 28.153 1.87272 28.8578 2.83426 29.2296L9.57057 56.3073C10.1144 58.0367 11.0291 60.0186 13.3528 60.0186H50.4334C52.6088 60.0186 53.5235 58.1251 54.228 56.2315L61.6441 28.2324C62.0727 27.8239 62.417 27.332 62.6568 26.7857C62.8967 26.2395 63.0273 25.6497 63.0408 25.0512V25.0512ZM7.55586 43.1282H17.6294L18.3587 49.2507H9.08853L7.55586 43.1282ZM28.8031 41.6765L28.5188 35.958H37.2822L36.9979 41.6765H28.8031ZM36.9237 43.1408L36.6271 49.2507H29.2109L28.9019 43.103L36.9237 43.1408ZM28.4323 34.4684L28.1851 29.5452H37.5912L37.344 34.4684H28.4323ZM26.7513 29.5452L26.9861 34.4684H18.0497L17.4687 29.5452H26.7513ZM27.0603 35.9454L27.3569 41.6765H18.9025L18.2227 35.958L27.0603 35.9454ZM17.4564 41.6765H7.18505L5.76363 35.9454H16.7766L17.4564 41.6765ZM19.0879 43.1408H27.4311L27.7277 49.2507H19.7801L19.0879 43.1408ZM27.7401 50.715L28.1356 58.731H20.942L19.9902 50.715H27.7401ZM29.1862 50.715H36.4911L36.0956 58.731H29.6683L29.1862 50.715ZM37.9249 50.715H45.7489L44.7972 58.731H37.5912L37.9249 50.715ZM38.0609 49.2507L38.3204 43.1282H46.6636L45.9838 49.2507H38.0609ZM48.2086 43.1282H56.4776L54.8089 49.2507H47.3928L48.2086 43.1282ZM48.3446 41.6765L49.0244 35.958H58.344L56.8607 41.6765H48.3446ZM46.8861 41.6765H38.444L38.7283 35.958H47.5659L46.8861 41.6765ZM38.8025 34.481L39.0373 29.5578H48.3322L47.7513 34.481H38.8025ZM30.5335 6.70911L38.9014 20.5951H22.178L30.5335 6.70911ZM4.404 29.5452H16.072L16.6653 34.4684H5.57823V35.188L4.1568 29.52L4.404 29.5452ZM10.7572 55.9538L9.44697 50.7402H18.5441L19.5082 58.7562H13.3281C12.1291 58.7562 11.3752 57.9357 10.7572 55.9538ZM53.0662 55.8781C52.3616 57.7085 51.7065 58.7562 50.4334 58.7562H46.3051L47.2569 50.7402H54.3887L53.0662 55.8781ZM58.5047 35.3647V34.5189H49.1974L49.7783 29.5957H58.6159C59.1313 29.5896 59.6416 29.4913 60.1238 29.3054L58.5047 35.3647Z" fill="#1A2027"/>
</svg>
