<svg width="94" height="163" viewBox="0 0 94 163" fill="none" xmlns="http://www.w3.org/2000/svg">
<rect x="44.7891" y="71.8491" width="32.5219" height="4.3318" rx="2.1659" transform="rotate(-55.6835 44.7891 71.8491)" fill="white"/>
<path d="M55.1112 68.7544H12.0363C10.2785 68.7544 8.85352 70.182 8.85352 71.943V72.8915C8.85352 74.6525 10.2785 76.0801 12.0363 76.0801H55.1112C56.869 76.0801 58.2939 74.6525 58.2939 72.8915V71.943C58.2939 70.182 56.869 68.7544 55.1112 68.7544Z" fill="#FFCC80"/>
<path d="M62.3681 76.0798H4.77475C2.13773 76.0798 0 78.2215 0 80.8633V82.2842C0 84.926 2.13773 87.0677 4.77475 87.0677H62.3681C65.0051 87.0677 67.1429 84.926 67.1429 82.2842V80.8633C67.1429 78.2215 65.0051 76.0798 62.3681 76.0798Z" fill="#F78120"/>
<path d="M49.5909 162.517H17.7941C14.9679 162.517 12.5875 160.085 12.2541 156.868L6.43671 100.696L5.03125 87.0676H62.1199L54.3579 157.691C54.0538 160.45 52.0121 162.517 49.5909 162.517Z" fill="#FFCC80"/>
<path d="M60.4339 101.231H6.25195L9.12804 127.937H57.4977L60.4339 101.231Z" fill="#EE2B2F"/>
<g opacity="0.5">
<path d="M52.9038 89.3468V18.6112C52.904 18.0614 52.795 17.5169 52.583 17.0089C52.3709 16.5009 52.0601 16.0393 51.6681 15.6505C51.2762 15.2617 50.8108 14.9534 50.2987 14.7431C49.7865 14.5328 49.2376 14.4246 48.6833 14.4248H21.494C20.3847 14.4248 19.321 14.8619 18.5366 15.6399C17.7523 16.4178 17.3117 17.473 17.3117 18.5732V89.3468H5.37109L5.37109 115.486H63.5616V89.3468H52.9038Z" fill="white"/>
<path d="M52.4038 89.3468V89.8468H52.9038H63.0616V114.986H5.87109V89.8468H17.3117H17.8117V89.3468V18.5732C17.8117 17.6069 18.1986 16.6794 18.8888 15.9948C19.579 15.3102 20.5161 14.9248 21.494 14.9248H48.6833L48.6835 14.9248C49.1726 14.9246 49.657 15.0201 50.1087 15.2056C50.5605 15.3911 50.9707 15.663 51.316 16.0055C51.6613 16.348 51.935 16.7545 52.1215 17.2015C52.3081 17.6485 52.404 18.1275 52.4038 18.611V18.6112V89.3468Z" stroke="black" stroke-opacity="0.35"/>
</g>
<path d="M37.6462 114.815H40.8034V117.414H37.3306L36.8438 121.23H34.0993L34.5848 117.414H31.015L30.5358 121.23H27.8092L28.2947 117.414H25.1133V114.815H28.6103L29.1214 110.952H25.9361V108.352H29.4332L29.92 104.538H32.6402L32.1534 108.352H35.7245L36.2101 104.538H38.9303L38.4447 108.352H41.6019L41.6262 110.952H38.1317L37.6462 114.815ZM34.9017 114.815L35.4128 110.952H31.8352L31.3242 114.815H34.9017Z" fill="white"/>
<path d="M37.7193 66.516L39.2273 64.9795C39.8252 65.5786 40.3074 66.2827 40.65 67.0567C40.983 67.8519 41.1545 68.7055 41.1545 69.5677C41.1545 70.4299 40.983 71.2834 40.65 72.0787C40.3156 72.8613 39.8325 73.5716 39.2273 74.17C38.6393 74.768 37.9444 75.2506 37.1787 75.5927C36.3866 75.9464 35.5279 76.1259 34.6605 76.1191V76.1191C33.7884 76.1275 32.9247 75.9479 32.1282 75.5927C30.5681 74.9125 29.3335 73.6524 28.6853 72.0787C28.3427 71.2859 28.166 70.4313 28.166 69.5677C28.166 68.704 28.3427 67.8495 28.6853 67.0567C29.0225 66.2798 29.5054 65.5747 30.108 64.9795L31.5875 66.516C31.1825 66.9204 30.863 67.4021 30.6479 67.9324C30.4328 68.4628 30.3266 69.031 30.3356 69.6032C30.3338 70.1775 30.4399 70.747 30.6486 71.282C30.8648 71.8169 31.1893 72.3013 31.6018 72.7047C32.0106 73.0999 32.4943 73.4095 33.0244 73.6152C33.5415 73.8119 34.0938 73.8991 34.6463 73.8713C35.2249 73.8743 35.7974 73.753 36.3251 73.5156C36.8572 73.3138 37.3416 73.0038 37.7477 72.6051C38.1618 72.2059 38.4825 71.7201 38.6867 71.1824C38.8757 70.6778 38.9674 70.142 38.957 69.6032C38.9678 69.032 38.8639 68.4644 38.6512 67.9341C38.4386 67.4038 38.1217 66.9216 37.7193 66.516V66.516Z" fill="#EE2B2F"/>
<path d="M41.1453 53.4136L33.0218 57.4824L41.1453 61.5797L41.1453 63.9983L28.1562 57.5109L41.1453 51.0235L41.1453 53.4136Z" fill="#EE2B2F"/>
<path d="M30.3329 40.7227L30.3329 49.3726L28.1562 49.3726L28.1562 40.7227L30.3329 40.7227ZM36.8346 40.7227L36.8346 47.2101L41.1026 47.2101L41.1026 49.3726L34.6437 49.3726L34.6437 40.7227L36.8346 40.7227Z" fill="#EE2B2F"/>
<path d="M30.3329 30.4372L30.3329 39.1013L28.1562 39.1013L28.1562 30.4372L30.3329 30.4372ZM35.7391 30.4372L35.7391 39.1013L33.5766 39.1013L33.5766 30.4372L35.7391 30.4372ZM38.9686 30.4372L41.1453 30.4372L41.1453 39.1013L38.9686 39.1013L38.9686 30.4372Z" fill="#EE2B2F"/>
</svg>
