<svg width="31" height="30" viewBox="0 0 31 30" fill="none" xmlns="http://www.w3.org/2000/svg">
<path d="M7.56043 28.4933L3.03043 29.1133C2.75051 29.1531 2.46514 29.1256 2.19795 29.0331C1.93076 28.9407 1.68944 28.7859 1.49396 28.5817C1.29849 28.3774 1.15449 28.1295 1.07388 27.8585C0.993269 27.5875 0.978374 27.3012 1.03043 27.0233L1.82043 22.7433L22.3704 2.1933C22.7476 1.81505 23.1957 1.51494 23.689 1.31017C24.1824 1.1054 24.7113 1 25.2454 1C25.7796 1 26.3085 1.1054 26.8018 1.31017C27.2952 1.51494 27.7433 1.81505 28.1204 2.1933V2.1933C28.8789 2.95592 29.3046 3.98775 29.3046 5.0633C29.3046 6.13885 28.8789 7.17068 28.1204 7.9333L7.56043 28.4933Z" stroke="#1A2027" stroke-width="1.5" stroke-miterlimit="10"/>
<path d="M20.0508 4.51318L25.7908 10.2632" stroke="#1A2027" stroke-width="1.5" stroke-miterlimit="10"/>
</svg>
